<svg xmlns="http://www.w3.org/2000/svg" viewBox="0 0 200 48" fill="none">
  <!-- Lens mark -->
  <g transform="translate(4, 4)">
    <!-- Outer lens shape -->
    <path d="M20 20 C8 20 0 20 0 20 C0 20 8 8 20 8 C32 8 40 20 40 20 C40 20 32 32 20 32 C8 32 0 20 0 20Z" fill="#1F4E79" opacity="0.15"/>
    <path d="M20 20 C8 20 0 20 0 20 C0 20 8 8 20 8 C32 8 40 20 40 20 C40 20 32 32 20 32 C8 32 0 20 0 20Z" stroke="#1F4E79" stroke-width="1.5" fill="none"/>
    <!-- Inner teal accent line -->
    <line x1="20" y1="9" x2="20" y2="31" stroke="#00B4D8" stroke-width="1.5"/>
    <!-- Center dot -->
    <circle cx="20" cy="20" r="2.5" fill="#00B4D8"/>
    <!-- Left subtle arc highlight -->
    <path d="M4 20 C4 20 8 13 16 11" stroke="#2E75B6" stroke-width="0.8" fill="none" opacity="0.6"/>
  </g>
  <!-- Wordmark -->
  <text x="56" y="30" font-family="Georgia, 'Times New Roman', serif" font-size="22" font-weight="400" letter-spacing="3" fill="#1F4E79">clarity</text>
</svg>
