<svg xmlns="http://www.w3.org/2000/svg" viewBox="0 0 200 48" fill="none">
  <g transform="translate(4, 4)">
    <path d="M20 20 C8 20 0 20 0 20 C0 20 8 8 20 8 C32 8 40 20 40 20 C40 20 32 32 20 32 C8 32 0 20 0 20Z" fill="rgba(255,255,255,0.12)"/>
    <path d="M20 20 C8 20 0 20 0 20 C0 20 8 8 20 8 C32 8 40 20 40 20 C40 20 32 32 20 32 C8 32 0 20 0 20Z" stroke="rgba(255,255,255,0.9)" stroke-width="1.5" fill="none"/>
    <line x1="20" y1="9" x2="20" y2="31" stroke="#00D4F5" stroke-width="1.5"/>
    <circle cx="20" cy="20" r="2.5" fill="#00D4F5"/>
    <path d="M4 20 C4 20 8 13 16 11" stroke="rgba(255,255,255,0.4)" stroke-width="0.8" fill="none"/>
  </g>
  <text x="56" y="30" font-family="Georgia, 'Times New Roman', serif" font-size="22" font-weight="400" letter-spacing="3" fill="white">clarity</text>
</svg>
